<svg xmlns="http://www.w3.org/2000/svg" width="1200" height="630" viewBox="0 0 1200 630" role="img" aria-labelledby="title desc">
  <title id="title">SEO Control Bridge for Divi Lite</title>
  <desc id="desc">A polished social sharing graphic for the free Lite version of SEO Control Bridge for Divi.</desc>
  <defs>
    <linearGradient id="bg" x1="0" y1="0" x2="1" y2="1">
      <stop offset="0" stop-color="#0A1628"/>
      <stop offset="0.52" stop-color="#121827"/>
      <stop offset="1" stop-color="#1D3557"/>
    </linearGradient>
    <linearGradient id="accent" x1="0" y1="0" x2="1" y2="0">
      <stop offset="0" stop-color="#00D4FF"/>
      <stop offset="1" stop-color="#7C3AED"/>
    </linearGradient>
    <filter id="shadow" x="-20%" y="-20%" width="140%" height="140%">
      <feDropShadow dx="0" dy="22" stdDeviation="24" flood-color="#000" flood-opacity="0.35"/>
    </filter>
  </defs>
  <rect width="1200" height="630" fill="url(#bg)"/>
  <circle cx="1050" cy="90" r="220" fill="#00D4FF" opacity="0.09"/>
  <circle cx="120" cy="560" r="260" fill="#7C3AED" opacity="0.12"/>
  <g opacity="0.18" stroke="#FFFFFF" stroke-width="1">
    <path d="M160 140H1040"/>
    <path d="M160 220H1040"/>
    <path d="M160 300H1040"/>
    <path d="M160 380H1040"/>
    <path d="M160 460H1040"/>
  </g>
  <g filter="url(#shadow)">
    <rect x="90" y="80" width="1020" height="470" rx="38" fill="#FFFFFF" opacity="0.08"/>
    <rect x="112" y="104" width="976" height="422" rx="30" fill="#FFFFFF" opacity="0.06" stroke="#FFFFFF" stroke-opacity="0.16"/>
  </g>
  <g transform="translate(148 147)">
    <rect x="0" y="0" width="118" height="118" rx="30" fill="url(#accent)"/>
    <path d="M35 68l20 20 38-50" fill="none" stroke="#fff" stroke-width="12" stroke-linecap="round" stroke-linejoin="round"/>
    <text x="150" y="38" fill="#8DEBFF" font-family="Inter, Arial, sans-serif" font-size="26" font-weight="800" letter-spacing="5">FREE LITE VERSION</text>
    <text x="150" y="106" fill="#FFFFFF" font-family="Space Grotesk, Inter, Arial, sans-serif" font-size="64" font-weight="800">SEO Control Bridge</text>
    <text x="150" y="168" fill="#FFFFFF" font-family="Space Grotesk, Inter, Arial, sans-serif" font-size="52" font-weight="700">for Divi Lite</text>
    <text x="0" y="265" fill="#C7D2FE" font-family="Inter, Arial, sans-serif" font-size="30" font-weight="500">Rank Math SEO metadata workflow tools for Divi sites.</text>
    <g transform="translate(0 320)">
      <rect width="210" height="52" rx="26" fill="#FFFFFF" opacity="0.12"/>
      <text x="28" y="35" fill="#FFFFFF" font-family="Inter, Arial, sans-serif" font-size="19" font-weight="800">OpenGraph</text>
      <rect x="232" width="210" height="52" rx="26" fill="#FFFFFF" opacity="0.12"/>
      <text x="260" y="35" fill="#FFFFFF" font-family="Inter, Arial, sans-serif" font-size="19" font-weight="800">SEO Fields</text>
      <rect x="464" width="210" height="52" rx="26" fill="#FFFFFF" opacity="0.12"/>
      <text x="492" y="35" fill="#FFFFFF" font-family="Inter, Arial, sans-serif" font-size="19" font-weight="800">Divi Ready</text>
    </g>
  </g>
  <text x="1046" y="512" fill="#FFFFFF" opacity="0.78" text-anchor="end" font-family="Inter, Arial, sans-serif" font-size="22" font-weight="700">Electronic Enterprises, Inc.</text>
</svg>
